<svg width="217" height="49" viewBox="0 0 217 49" fill="none" xmlns="http://www.w3.org/2000/svg">
<path d="M0.00612132 14.6317H2.87029V45.6418C2.87029 46.4031 2.56788 47.1331 2.0296 47.6714C1.49132 48.2097 0.761248 48.5121 0 48.5121L0.00612132 14.6317Z" fill="#EF6E46"/>
<path d="M33.8864 14.6317H31.0222V45.6418C31.0222 46.4031 31.3246 47.1331 31.8629 47.6714C32.4012 48.2097 33.1313 48.5121 33.8925 48.5121L33.8864 14.6317Z" fill="#EF6E46"/>
<path d="M14.9389 16.0761C14.9389 15.6946 14.7874 15.3288 14.5177 15.0591C14.248 14.7894 13.8822 14.6379 13.5007 14.6379C13.3108 14.6363 13.1225 14.6723 12.9466 14.7438C12.7707 14.8154 12.6107 14.921 12.4759 15.0548C12.341 15.1885 12.234 15.3476 12.1609 15.5229C12.0879 15.6981 12.0503 15.8862 12.0503 16.0761V45.648C12.0503 46.0254 12.1247 46.3992 12.2694 46.7478C12.414 47.0964 12.626 47.4131 12.8931 47.6798C13.1603 47.9464 13.4775 48.1577 13.8264 48.3015C14.1754 48.4454 14.5493 48.5191 14.9267 48.5183L14.9389 16.0761Z" fill="#EF6E46"/>
<path d="M21.8423 16.0761C21.8423 15.6946 21.6907 15.3288 21.421 15.0591C21.1513 14.7894 20.7855 14.6379 20.4041 14.6379C20.2142 14.6363 20.0258 14.6723 19.8499 14.7438C19.674 14.8154 19.514 14.921 19.3792 15.0548C19.2443 15.1885 19.1373 15.3476 19.0642 15.5229C18.9912 15.6981 18.9536 15.8862 18.9536 16.0761V45.648C18.9544 46.026 19.0299 46.4 19.1756 46.7488C19.3214 47.0975 19.5346 47.414 19.803 47.6801C20.0713 47.9463 20.3897 48.1568 20.7396 48.2995C21.0896 48.4423 21.4643 48.5146 21.8423 48.5122V16.0761Z" fill="#EF6E46"/>
<path d="M14.9388 30.1399H0.00598145V33.0102H14.9388V30.1399Z" fill="#EF6E46"/>
<path d="M33.8864 30.1399H18.9536V33.0102H33.8864V30.1399Z" fill="#EF6E46"/>
<path d="M1.44434 14.6317C1.44434 7.65489 8.37831 2 16.9463 2C25.5144 2 32.4483 7.65489 32.4483 14.6317" stroke="#EF6E46" stroke-width="2.87029"/>
<path d="M59.3624 24.5235V25.4407H77.378V24.5235H59.3624ZM59.3624 24.5235V25.4407H61.4159V24.5235H59.3624ZM80.8551 11.2857C80.9272 11.0327 81.0595 10.8009 81.2407 10.6102C81.4219 10.4195 81.6466 10.2755 81.8955 10.1905C82.6328 9.94676 83.4052 9.8265 84.1817 9.83456V8.91736L81.5396 9.01319C80.4444 9.01319 79.2534 9.01319 77.9803 9.01319H74.5579L71.7241 8.91736V9.83456C72.5006 9.8265 73.2731 9.94676 74.0103 10.1905C74.2635 10.2677 74.4924 10.4091 74.6747 10.6011C74.8571 10.793 74.9866 11.0288 75.0507 11.2857C75.2732 12.0871 75.3656 12.919 75.3245 13.7498V36.3924C75.3617 37.223 75.2694 38.0544 75.0507 38.8566C74.9915 39.1092 74.8686 39.3426 74.6937 39.5343C74.5187 39.726 74.2976 39.8697 74.0514 39.9517C73.2943 40.1703 72.512 40.2899 71.7241 40.3076V41.2248C72.4771 41.2248 73.4217 41.129 74.5579 41.129H77.9803C79.2534 41.129 80.4444 41.129 81.5396 41.129C82.6348 41.129 83.5109 41.129 84.1817 41.2248V40.3076C83.4075 40.2882 82.639 40.1686 81.8955 39.9517C81.6466 39.8667 81.4219 39.7227 81.2407 39.532C81.0595 39.3413 80.9272 39.1095 80.8551 38.8566C80.6365 38.0544 80.5441 37.223 80.5813 36.3924V13.7498C80.5402 12.919 80.6327 12.0871 80.8551 11.2857Z" fill="#EF6E46"/>
<path d="M59.3622 24.5234V25.4406H61.4156V36.3923C61.3784 37.2229 61.4708 38.0542 61.6894 38.8564C61.7615 39.1094 61.8938 39.3412 62.075 39.5319C62.2562 39.7226 62.4809 39.8666 62.7299 39.9516C63.4733 40.1685 64.2418 40.2881 65.016 40.3075V41.2247C64.2905 41.2247 63.3596 41.1289 62.2781 41.1289C61.1966 41.1289 60.0467 41.1289 58.8968 41.1289C57.7468 41.1289 56.4189 41.1289 55.2964 41.1289C54.1738 41.1289 53.2977 41.1289 52.5585 41.2247V40.3075C53.3463 40.2898 54.1286 40.1702 54.8857 39.9516C55.1319 39.8696 55.3531 39.7259 55.528 39.5342C55.7029 39.3424 55.8259 39.1091 55.885 38.8564C56.1037 38.0542 56.196 37.2229 56.1588 36.3923V13.7497C56.1766 13.0846 56.1262 12.4195 56.0083 11.7647C54.0096 8.80772 49.3551 13.0241 49.3551 13.0241C49.3551 10.0124 51.5728 9.13627 53.5441 8.91724C54.3181 8.84298 55.0974 8.84298 55.8714 8.91724H58.7736C59.9235 8.91724 61.0597 8.91724 62.1549 8.91724L64.8928 8.82141V9.73861C64.1164 9.73055 63.3439 9.85081 62.6066 10.0945C62.3577 10.1795 62.133 10.3235 61.9518 10.5143C61.7706 10.705 61.6383 10.9367 61.5662 11.1897C61.3438 11.9912 61.2513 12.8231 61.2924 13.6538V24.4276L59.3622 24.5234Z" fill="#EF6E46"/>
<path d="M188.483 24.5235V25.4407H206.512V24.5235H188.483ZM190.536 13.7498C190.502 12.9193 190.594 12.0884 190.81 11.2857C190.885 11.0322 191.021 10.8006 191.204 10.61C191.387 10.4195 191.614 10.2756 191.864 10.1905C192.601 9.94553 193.374 9.82523 194.15 9.83456V8.91736L191.412 9.01319C190.317 9.01319 189.195 9.01319 188.045 9.01319C186.895 9.01319 185.69 9.01319 184.431 9.01319L181.693 8.91736V9.83456C182.469 9.82523 183.242 9.94553 183.979 10.1905C184.234 10.2669 184.465 10.4078 184.65 10.5997C184.834 10.7915 184.966 11.0278 185.033 11.2857C185.248 12.0884 185.341 12.9193 185.307 13.7498V36.3924C185.337 37.2228 185.245 38.0531 185.033 38.8566C184.97 39.1097 184.844 39.3429 184.667 39.5343C184.49 39.7258 184.267 39.8694 184.02 39.9517C183.263 40.1726 182.481 40.2923 181.693 40.3076V41.2248C182.404 41.2248 183.294 41.129 184.431 41.129C185.567 41.129 186.758 41.129 188.045 41.129C189.331 41.129 190.317 41.129 191.412 41.129C192.507 41.129 193.466 41.129 194.15 41.2248V40.3076C193.376 40.2895 192.607 40.1698 191.864 39.9517C191.614 39.8666 191.387 39.7227 191.204 39.5322C191.021 39.3416 190.885 39.11 190.81 38.8566C190.598 38.0531 190.506 37.2228 190.536 36.3924V13.7498ZM210.701 9.01319C211.741 9.01319 212.617 9.01319 213.275 8.91736L210.701 9.01319ZM210.988 10.1905C210.742 10.275 210.521 10.4193 210.344 10.6105C210.167 10.8016 210.041 11.0336 209.975 11.2857C210.051 11.0322 210.186 10.8006 210.369 10.61C210.553 10.4195 210.779 10.2756 211.029 10.1905L211.399 10.081L210.988 10.1905ZM204.458 24.5235V25.6187H206.512V24.5235H204.458ZM200.844 40.3076C201.467 40.3056 202.087 40.2321 202.692 40.0886C202.083 40.2118 201.465 40.285 200.844 40.3076ZM200.844 8.91736C201.584 8.91736 202.515 9.01319 203.582 9.01319L200.844 8.91736Z" fill="#EF6E46"/>
<path d="M100.91 8.73932L112.04 37.3917C112.307 38.2716 112.808 39.0621 113.491 39.6778C113.959 40.0269 114.512 40.2444 115.093 40.3076V41.2248C114.367 41.2248 113.491 41.1289 112.492 41.1289C111.492 41.1289 110.534 41.1289 109.521 41.1289C108.248 41.1289 107.071 41.1289 105.962 41.1289C104.853 41.1289 103.991 41.129 103.32 41.2248V40.3076C104.357 40.4109 105.396 40.1389 106.249 39.541C106.674 39.0481 106.578 38.0351 105.962 36.4745L97.7481 14.2973L98.4874 13.4759L90.9033 33.2848C90.4349 34.3817 90.0994 35.5306 89.904 36.7072C89.7941 37.4317 89.8743 38.1723 90.1367 38.8565C90.2816 39.1201 90.4771 39.3526 90.712 39.5405C90.9469 39.7284 91.2166 39.8682 91.5057 39.9517C92.2745 40.1807 93.0717 40.3006 93.874 40.3076V41.2248C92.9568 41.2248 92.0395 41.1289 91.136 41.1289H88.535C87.8095 41.1289 87.166 41.1289 86.5774 41.1289C86.0739 41.1301 85.5711 41.1621 85.0715 41.2248V40.3076C85.798 40.1104 86.4562 39.7173 86.9744 39.1713C87.7978 38.2762 88.4229 37.2172 88.8088 36.0638L99.3909 8.68457H100.951L100.91 8.73932ZM105.702 28.0827V29H92.0943L92.5598 28.0827H105.702Z" fill="#EF6E46"/>
<path d="M115.147 8.91736L117.885 9.01319H121.226C122.677 9.01319 124.073 9.01319 125.333 9.01319C126.592 9.01319 127.619 9.01319 128.166 9.01319C130.355 8.95028 132.537 9.29376 134.6 10.0262C136.136 10.5538 137.473 11.5377 138.433 12.8463C139.288 14.043 139.734 15.483 139.707 16.9532C139.693 17.9843 139.494 19.0046 139.118 19.9649C138.696 21.0808 138.022 22.0836 137.147 22.8945C136.029 23.8744 134.725 24.6193 133.314 25.0848C131.323 25.7175 129.241 26.0091 127.153 25.9472H122.773V25.03H126.701C128.315 25.1307 129.926 24.785 131.356 24.0307C132.388 23.407 133.164 22.4365 133.546 21.2928C133.954 20.0566 134.153 18.7612 134.135 17.4597C134.263 15.4811 133.717 13.5176 132.588 11.888C131.561 10.519 129.754 9.88932 127.208 9.88932C126.745 9.82815 126.274 9.86477 125.826 9.99681C125.378 10.1289 124.963 10.3534 124.607 10.6559C124.107 11.6254 123.897 12.7189 124.005 13.8046V36.4472C123.974 37.2775 124.067 38.1078 124.278 38.9113C124.356 39.1637 124.492 39.3944 124.675 39.5846C124.858 39.7749 125.083 39.9194 125.333 40.0065C126.076 40.2246 126.844 40.3442 127.619 40.3624V41.2248C126.879 41.2248 125.962 41.129 124.881 41.129C123.799 41.129 122.663 41.129 121.513 41.129C120.363 41.129 119.035 41.129 117.899 41.129C116.763 41.129 115.914 41.129 115.161 41.2248V40.3076C115.949 40.2899 116.731 40.1703 117.488 39.9517C117.733 39.8674 117.953 39.723 118.128 39.5317C118.302 39.3403 118.426 39.1082 118.488 38.8566C118.7 38.0531 118.792 37.2228 118.762 36.3924V13.7498C118.795 12.9193 118.703 12.0884 118.488 11.2857C118.421 11.0278 118.289 10.7915 118.104 10.5997C117.92 10.4078 117.689 10.2669 117.434 10.1905C116.702 9.94451 115.933 9.82417 115.161 9.83456L115.147 8.91736ZM122.855 25.1122C124.402 25.1806 125.661 25.2491 126.592 25.3449L128.974 25.5229C129.604 25.5913 130.206 25.6598 130.754 25.7556C132.55 25.8773 134.273 26.5089 135.723 27.5763C136.9 28.6951 137.67 30.1738 137.913 31.779L139.05 36.4335C139.217 37.3814 139.512 38.3024 139.926 39.1714C140.069 39.4284 140.28 39.6409 140.536 39.7858C140.792 39.9307 141.083 40.0023 141.377 39.9928C141.808 39.9879 142.225 39.8438 142.568 39.5821C142.956 39.2541 143.309 38.8871 143.622 38.4869L144.252 38.9934C143.658 39.8366 142.915 40.5649 142.061 41.1427C141.123 41.6401 140.069 41.8765 139.008 41.8272C137.803 41.8552 136.619 41.5006 135.627 40.8142C134.539 39.7766 133.847 38.392 133.67 36.8989L132.752 32.3266C132.522 31.1863 132.22 30.0615 131.849 28.9589C131.592 28.0939 131.121 27.3076 130.48 26.6728C129.77 26.0783 128.857 25.7837 127.934 25.8514H123.005L122.855 25.1122Z" fill="#EF6E46"/>
<path d="M157.353 8.91736V9.83456C156.581 9.82417 155.812 9.94451 155.08 10.1905C154.83 10.2756 154.604 10.4195 154.42 10.61C154.237 10.8006 154.102 11.0322 154.026 11.2857C153.811 12.0884 153.718 12.9193 153.752 13.7498V36.3924C153.722 37.2228 153.814 38.0531 154.026 38.8566C154.102 39.11 154.237 39.3416 154.42 39.5322C154.604 39.7227 154.83 39.8666 155.08 39.9517C155.819 40.17 156.583 40.2897 157.353 40.3076V41.2248C156.627 41.2248 155.696 41.129 154.615 41.129C153.533 41.129 152.397 41.129 151.233 41.129C150.07 41.129 148.756 41.129 147.633 41.129C146.511 41.129 145.634 41.129 144.895 41.2248V40.3076C145.683 40.2923 146.466 40.1726 147.222 39.9517C147.47 39.8694 147.693 39.7258 147.87 39.5343C148.047 39.3429 148.173 39.1097 148.235 38.8566C148.447 38.0531 148.539 37.2228 148.509 36.3924V13.7498C148.543 12.9193 148.451 12.0884 148.235 11.2857C148.169 11.0278 148.037 10.7915 147.852 10.5997C147.667 10.4078 147.436 10.2669 147.181 10.1905C146.444 9.94553 145.672 9.82523 144.895 9.83456V8.91736L147.633 9.01319C148.756 9.01319 149.96 9.01319 151.233 9.01319C152.507 9.01319 153.52 9.01319 154.615 9.01319L157.353 8.91736Z" fill="#EF6E46"/>
<path d="M177.435 27.3984V30.4512H161.008V27.3984H177.435Z" fill="#EF6E46"/>
<path d="M200.844 41.2247C201.597 41.2247 202.501 41.1289 203.582 41.1289L200.844 41.2247Z" fill="#EF6E46"/>
<path d="M203.131 10.1903C202.387 9.97342 201.619 9.85378 200.844 9.83437C201.621 9.82503 202.394 9.94533 203.131 10.1903Z" fill="#EF6E46"/>
<path d="M204.171 38.8565C204.2 38.7902 204.223 38.7215 204.24 38.6511C204.246 38.7194 204.246 38.7882 204.24 38.8565C204.177 39.1096 204.051 39.3428 203.874 39.5343C203.697 39.7257 203.474 39.8693 203.226 39.9517L202.802 40.0749L203.185 39.9517C203.424 39.8594 203.638 39.7121 203.809 39.5219C203.98 39.3316 204.104 39.1036 204.171 38.8565Z" fill="#EF6E46"/>
<path d="M206.512 24.5234H204.459V24.7014H206.512V24.5234Z" fill="#EF6E46"/>
<path d="M213.261 9.83447C212.659 9.8635 212.059 9.93671 211.468 10.0535C212.056 9.91628 212.657 9.84284 213.261 9.83447Z" fill="#EF6E46"/>
<path d="M209.811 38.1172C209.811 38.2267 209.811 38.2952 209.811 38.3773C209.852 38.2952 209.825 38.213 209.811 38.1172Z" fill="#EF6E46"/>
<path d="M206.498 25.5227V24.6055H204.445V13.6538C204.482 12.8232 204.39 11.9919 204.171 11.1897C204.099 10.9367 203.967 10.705 203.785 10.5143C203.604 10.3235 203.379 10.1795 203.131 10.0945C202.387 9.87767 201.619 9.75803 200.844 9.73861V8.82141C201.57 8.82141 202.501 8.91724 203.582 8.91724C204.664 8.91724 205.814 8.91724 206.964 8.91724C208.114 8.91724 209.441 8.91724 210.564 8.91724C211.687 8.91724 212.563 8.91724 213.302 8.82141V9.73861C212.514 9.75633 211.732 9.87597 210.975 10.0945C210.728 10.1766 210.507 10.3203 210.332 10.512C210.157 10.7037 210.035 10.937 209.975 11.1897C209.757 11.9919 209.664 12.8232 209.702 13.6538V36.2965C209.684 36.9615 209.734 37.6267 209.852 38.2815C211.851 41.2384 216.505 37.022 216.505 37.022C216.505 40.0474 214.288 40.9099 212.316 41.1289C211.54 41.1943 210.76 41.1713 209.989 41.0605H207.087C205.937 41.0605 204.801 41.0605 203.705 41.0605L200.968 41.1563V40.2391C201.744 40.2471 202.516 40.1269 203.254 39.8832C203.503 39.7982 203.727 39.6542 203.909 39.4634C204.09 39.2727 204.222 39.041 204.294 38.788C204.517 37.9865 204.609 37.1546 204.568 36.3238V25.5501L206.498 25.5227Z" fill="#EF6E46"/>
</svg>
