<svg width="217" height="49" viewBox="0 0 217 49" fill="none" xmlns="http://www.w3.org/2000/svg">
<path d="M0.00612132 14.6328H2.87029V45.6429C2.87029 46.4042 2.56788 47.1342 2.0296 47.6725C1.49132 48.2108 0.761248 48.5132 0 48.5132L0.00612132 14.6328Z" fill="#FEFBE8"/>
<path d="M33.8866 14.6328H31.0225V45.6429C31.0225 46.4042 31.3249 47.1342 31.8632 47.6725C32.4014 48.2108 33.1315 48.5132 33.8927 48.5132L33.8866 14.6328Z" fill="#FEFBE8"/>
<path d="M14.9389 16.075C14.9389 15.6935 14.7874 15.3277 14.5177 15.058C14.248 14.7883 13.8822 14.6368 13.5007 14.6368C13.3108 14.6352 13.1225 14.6712 12.9466 14.7427C12.7707 14.8143 12.6107 14.9199 12.4759 15.0537C12.341 15.1874 12.234 15.3465 12.1609 15.5218C12.0879 15.697 12.0503 15.8851 12.0503 16.075V45.6469C12.0503 46.0243 12.1247 46.3981 12.2694 46.7467C12.414 47.0954 12.626 47.412 12.8931 47.6787C13.1603 47.9453 13.4775 48.1566 13.8264 48.3004C14.1754 48.4443 14.5493 48.518 14.9267 48.5172L14.9389 16.075Z" fill="#FEFBE8"/>
<path d="M21.8423 16.075C21.8423 15.6935 21.6907 15.3277 21.421 15.058C21.1513 14.7883 20.7855 14.6368 20.4041 14.6368C20.2142 14.6352 20.0258 14.6712 19.8499 14.7427C19.674 14.8143 19.514 14.9199 19.3792 15.0537C19.2443 15.1874 19.1373 15.3465 19.0642 15.5218C18.9912 15.697 18.9536 15.8851 18.9536 16.075V45.6469C18.9544 46.0249 19.0299 46.3989 19.1756 46.7477C19.3214 47.0964 19.5346 47.4129 19.803 47.679C20.0713 47.9452 20.3897 48.1557 20.7396 48.2984C21.0896 48.4412 21.4643 48.5135 21.8423 48.5111V16.075Z" fill="#FEFBE8"/>
<path d="M14.9387 30.1406H0.00585938V33.0109H14.9387V30.1406Z" fill="#FEFBE8"/>
<path d="M33.8864 30.1406H18.9536V33.0109H33.8864V30.1406Z" fill="#FEFBE8"/>
<path d="M1.44434 14.6317C1.44434 7.65489 8.37831 2 16.9463 2C25.5144 2 32.4483 7.65489 32.4483 14.6317" stroke="#FEFBE8" stroke-width="2.87029"/>
<path d="M59.3623 24.5241V25.4413H77.3778V24.5241H59.3623ZM59.3623 24.5241V25.4413H61.4157V24.5241H59.3623ZM80.855 11.2863C80.9271 11.0333 81.0594 10.8015 81.2406 10.6108C81.4218 10.4201 81.6465 10.2761 81.8954 10.1911C82.6327 9.94737 83.4051 9.82711 84.1816 9.83517V8.91797L81.5395 9.0138C80.4443 9.0138 79.2533 9.0138 77.9802 9.0138H74.5578L71.724 8.91797V9.83517C72.5005 9.82711 73.2729 9.94737 74.0102 10.1911C74.2634 10.2683 74.4923 10.4098 74.6746 10.6017C74.8569 10.7936 74.9865 11.0294 75.0506 11.2863C75.2731 12.0877 75.3655 12.9197 75.3244 13.7504V36.393C75.3616 37.2236 75.2692 38.055 75.0506 38.8572C74.9914 39.1099 74.8685 39.3432 74.6936 39.5349C74.5186 39.7266 74.2975 39.8703 74.0513 39.9523C73.2941 40.1709 72.5119 40.2905 71.724 40.3083V41.2255C72.477 41.2255 73.4215 41.1296 74.5578 41.1296H77.9802C79.2533 41.1296 80.4443 41.1296 81.5395 41.1296C82.6346 41.1296 83.5108 41.1296 84.1816 41.2255V40.3083C83.4073 40.2888 82.6389 40.1692 81.8954 39.9523C81.6465 39.8674 81.4218 39.7233 81.2406 39.5326C81.0594 39.3419 80.9271 39.1101 80.855 38.8572C80.6364 38.055 80.544 37.2236 80.5812 36.393V13.7504C80.5401 12.9197 80.6325 12.0877 80.855 11.2863Z" fill="#FEFBE8"/>
<path d="M59.3621 24.5223V25.4395H61.4155V36.3912C61.3783 37.2218 61.4707 38.0531 61.6893 38.8553C61.7614 39.1083 61.8937 39.3401 62.0749 39.5308C62.2561 39.7215 62.4808 39.8655 62.7297 39.9505C63.4732 40.1674 64.2417 40.287 65.0159 40.3064V41.2236C64.2903 41.2236 63.3594 41.1278 62.278 41.1278C61.1965 41.1278 60.0466 41.1278 58.8966 41.1278C57.7467 41.1278 56.4188 41.1278 55.2963 41.1278C54.1737 41.1278 53.2976 41.1278 52.5583 41.2236V40.3064C53.3462 40.2887 54.1285 40.1691 54.8856 39.9505C55.1318 39.8685 55.3529 39.7248 55.5279 39.5331C55.7028 39.3414 55.8257 39.108 55.8849 38.8553C56.1035 38.0531 56.1959 37.2218 56.1587 36.3912V13.7486C56.1765 13.0835 56.126 12.4184 56.0081 11.7636C54.0094 8.80662 49.355 13.023 49.355 13.023C49.355 10.0113 51.5727 9.13517 53.544 8.91614C54.318 8.84188 55.0973 8.84188 55.8712 8.91614H58.7734C59.9234 8.91614 61.0596 8.91614 62.1548 8.91614L64.8927 8.82031V9.73751C64.1162 9.72945 63.3438 9.84971 62.6065 10.0934C62.3576 10.1784 62.1329 10.3224 61.9517 10.5132C61.7705 10.7039 61.6382 10.9356 61.5661 11.1886C61.3436 11.9901 61.2512 12.822 61.2923 13.6527V24.4265L59.3621 24.5223Z" fill="#FEFBE8"/>
<path d="M188.482 24.5241V25.4413H206.512V24.5241H188.482ZM190.536 13.7504C190.502 12.9199 190.594 12.0891 190.81 11.2863C190.885 11.0328 191.02 10.8012 191.204 10.6106C191.387 10.4201 191.613 10.2763 191.864 10.1911C192.601 9.94614 193.373 9.82584 194.15 9.83517V8.91797L191.412 9.0138C190.317 9.0138 189.194 9.0138 188.044 9.0138C186.894 9.0138 185.69 9.0138 184.43 9.0138L181.692 8.91797V9.83517C182.469 9.82584 183.242 9.94614 183.979 10.1911C184.234 10.2675 184.465 10.4084 184.649 10.6003C184.834 10.7921 184.966 11.0284 185.033 11.2863C185.248 12.0891 185.34 12.9199 185.306 13.7504V36.393C185.337 37.2234 185.244 38.0537 185.033 38.8572C184.97 39.1103 184.844 39.3435 184.667 39.5349C184.49 39.7264 184.267 39.87 184.02 39.9523C183.263 40.1732 182.48 40.2929 181.692 40.3083V41.2255C182.404 41.2255 183.294 41.1296 184.43 41.1296C185.567 41.1296 186.758 41.1296 188.044 41.1296C189.331 41.1296 190.317 41.1296 191.412 41.1296C192.507 41.1296 193.465 41.1296 194.15 41.2255V40.3083C193.376 40.2901 192.607 40.1704 191.864 39.9523C191.613 39.8672 191.387 39.7233 191.204 39.5328C191.02 39.3423 190.885 39.1106 190.81 38.8572C190.598 38.0537 190.506 37.2234 190.536 36.393V13.7504ZM210.701 9.0138C211.741 9.0138 212.617 9.0138 213.274 8.91797L210.701 9.0138ZM210.988 10.1911C210.742 10.2756 210.52 10.4199 210.344 10.6111C210.167 10.8022 210.04 11.0342 209.975 11.2863C210.051 11.0328 210.186 10.8012 210.369 10.6106C210.553 10.4201 210.779 10.2763 211.029 10.1911L211.399 10.0816L210.988 10.1911ZM204.458 24.5241V25.6193H206.512V24.5241H204.458ZM200.844 40.3083C201.467 40.3062 202.087 40.2327 202.692 40.0892C202.083 40.2124 201.465 40.2857 200.844 40.3083ZM200.844 8.91797C201.583 8.91797 202.514 9.0138 203.582 9.0138L200.844 8.91797Z" fill="#FEFBE8"/>
<path d="M100.91 8.73834L112.04 37.3907C112.306 38.2706 112.808 39.0611 113.491 39.6769C113.959 40.026 114.512 40.2434 115.093 40.3066V41.2238C114.367 41.2238 113.491 41.128 112.492 41.128C111.492 41.128 110.534 41.128 109.521 41.128C108.248 41.128 107.071 41.128 105.962 41.128C104.853 41.128 103.99 41.128 103.32 41.2238V40.3066C104.356 40.4099 105.396 40.1379 106.249 39.54C106.674 39.0472 106.578 38.0341 105.962 36.4735L97.7479 14.2963L98.4871 13.4749L90.9031 33.2838C90.4346 34.3807 90.0991 35.5296 89.9037 36.7062C89.7938 37.4307 89.874 38.1713 90.1365 38.8555C90.2814 39.1191 90.4769 39.3516 90.7118 39.5395C90.9467 39.7275 91.2164 39.8672 91.5054 39.9507C92.2743 40.1798 93.0715 40.2996 93.8737 40.3066V41.2238C92.9565 41.2238 92.0393 41.128 91.1358 41.128H88.5348C87.8092 41.128 87.1658 41.128 86.5771 41.128C86.0737 41.1291 85.5708 41.1611 85.0713 41.2238V40.3066C85.7977 40.1094 86.456 39.7163 86.9741 39.1704C87.7976 38.2752 88.4227 37.2163 88.8086 36.0628L99.3906 8.68359H100.951L100.91 8.73834ZM105.702 28.0818V28.999H92.0941L92.5595 28.0818H105.702Z" fill="#FEFBE8"/>
<path d="M115.147 8.91797L117.885 9.0138H121.226C122.677 9.0138 124.073 9.0138 125.333 9.0138C126.592 9.0138 127.619 9.0138 128.166 9.0138C130.355 8.95089 132.537 9.29437 134.6 10.0268C136.136 10.5544 137.473 11.5383 138.433 12.8469C139.288 14.0436 139.734 15.4836 139.707 16.9538C139.693 17.9849 139.494 19.0052 139.118 19.9655C138.696 21.0814 138.022 22.0843 137.147 22.8951C136.029 23.875 134.725 24.6199 133.314 25.0854C131.323 25.7181 129.241 26.0097 127.153 25.9478H122.773V25.0306H126.701C128.315 25.1314 129.926 24.7856 131.356 24.0313C132.388 23.4076 133.164 22.4371 133.546 21.2934C133.954 20.0572 134.153 18.7618 134.135 17.4603C134.263 15.4817 133.717 13.5182 132.588 11.8886C131.561 10.5197 129.754 9.88993 127.208 9.88993C126.745 9.82876 126.274 9.86538 125.826 9.99742C125.378 10.1295 124.963 10.354 124.607 10.6565C124.107 11.626 123.897 12.7195 124.005 13.8052V36.4478C123.974 37.2781 124.067 38.1084 124.278 38.9119C124.356 39.1643 124.492 39.395 124.675 39.5852C124.858 39.7755 125.083 39.92 125.333 40.0071C126.076 40.2252 126.844 40.3448 127.619 40.363V41.2255C126.879 41.2255 125.962 41.1296 124.881 41.1296C123.799 41.1296 122.663 41.1296 121.513 41.1296C120.363 41.1296 119.035 41.1296 117.899 41.1296C116.763 41.1296 115.914 41.1296 115.161 41.2255V40.3083C115.949 40.2905 116.731 40.1709 117.488 39.9523C117.733 39.8681 117.953 39.7236 118.128 39.5323C118.302 39.3409 118.426 39.1088 118.488 38.8572C118.7 38.0537 118.792 37.2234 118.762 36.393V13.7504C118.795 12.9199 118.703 12.0891 118.488 11.2863C118.421 11.0284 118.289 10.7921 118.104 10.6003C117.92 10.4084 117.689 10.2675 117.434 10.1911C116.702 9.94512 115.933 9.82478 115.161 9.83517L115.147 8.91797ZM122.855 25.1128C124.402 25.1812 125.661 25.2497 126.592 25.3455L128.974 25.5235C129.604 25.5919 130.206 25.6604 130.754 25.7562C132.55 25.8779 134.273 26.5096 135.723 27.5769C136.9 28.6957 137.67 30.1744 137.913 31.7796L139.05 36.4341C139.217 37.382 139.512 38.303 139.926 39.172C140.069 39.429 140.28 39.6415 140.536 39.7864C140.792 39.9313 141.083 40.0029 141.377 39.9934C141.808 39.9885 142.225 39.8444 142.568 39.5827C142.956 39.2547 143.309 38.8877 143.622 38.4875L144.252 38.994C143.658 39.8372 142.916 40.5655 142.061 41.1433C141.123 41.6408 140.069 41.8772 139.008 41.8278C137.803 41.8558 136.619 41.5012 135.627 40.8148C134.539 39.7772 133.847 38.3926 133.67 36.8995L132.752 32.3272C132.522 31.1869 132.22 30.0621 131.849 28.9596C131.592 28.0945 131.121 27.3082 130.48 26.6734C129.77 26.0789 128.857 25.7843 127.934 25.852H123.005L122.855 25.1128Z" fill="#FEFBE8"/>
<path d="M157.353 8.91797V9.83517C156.58 9.82478 155.812 9.94512 155.08 10.1911C154.83 10.2763 154.603 10.4201 154.42 10.6106C154.237 10.8012 154.102 11.0328 154.026 11.2863C153.811 12.0891 153.718 12.9199 153.752 13.7504V36.393C153.722 37.2234 153.814 38.0537 154.026 38.8572C154.102 39.1106 154.237 39.3423 154.42 39.5328C154.603 39.7233 154.83 39.8672 155.08 39.9523C155.819 40.1706 156.583 40.2903 157.353 40.3083V41.2255C156.627 41.2255 155.696 41.1296 154.615 41.1296C153.533 41.1296 152.397 41.1296 151.233 41.1296C150.07 41.1296 148.755 41.1296 147.633 41.1296C146.51 41.1296 145.634 41.1296 144.895 41.2255V40.3083C145.683 40.2929 146.466 40.1732 147.222 39.9523C147.47 39.87 147.692 39.7264 147.87 39.5349C148.047 39.3435 148.172 39.1103 148.235 38.8572C148.447 38.0537 148.539 37.2234 148.509 36.393V13.7504C148.543 12.9199 148.451 12.0891 148.235 11.2863C148.169 11.0284 148.037 10.7921 147.852 10.6003C147.667 10.4084 147.436 10.2675 147.181 10.1911C146.444 9.94614 145.672 9.82584 144.895 9.83517V8.91797L147.633 9.0138C148.755 9.0138 149.96 9.0138 151.233 9.0138C152.506 9.0138 153.519 9.0138 154.615 9.0138L157.353 8.91797Z" fill="#FEFBE8"/>
<path d="M177.435 27.3984V30.4512H161.008V27.3984H177.435Z" fill="#FEFBE8"/>
<path d="M200.844 41.2247C201.597 41.2247 202.501 41.1289 203.582 41.1289L200.844 41.2247Z" fill="#FEFBE8"/>
<path d="M203.13 10.1885C202.387 9.97159 201.618 9.85195 200.844 9.83254C201.621 9.8232 202.393 9.9435 203.13 10.1885Z" fill="#FEFBE8"/>
<path d="M204.171 38.8538C204.2 38.7875 204.223 38.7188 204.239 38.6484C204.245 38.7167 204.245 38.7855 204.239 38.8538C204.176 39.1069 204.051 39.3401 203.873 39.5316C203.696 39.723 203.474 39.8666 203.226 39.949L202.802 40.0722L203.185 39.949C203.424 39.8567 203.638 39.7095 203.809 39.5192C203.98 39.3289 204.104 39.1009 204.171 38.8538Z" fill="#FEFBE8"/>
<path d="M206.512 24.5234H204.458V24.7014H206.512V24.5234Z" fill="#FEFBE8"/>
<path d="M213.261 9.83203C212.659 9.86106 212.059 9.93427 211.468 10.0511C212.056 9.91384 212.657 9.8404 213.261 9.83203Z" fill="#FEFBE8"/>
<path d="M209.811 38.1172C209.811 38.2267 209.811 38.2952 209.811 38.3773C209.852 38.2952 209.825 38.213 209.811 38.1172Z" fill="#FEFBE8"/>
<path d="M206.498 25.5216V24.6044H204.445V13.6527C204.482 12.8221 204.389 11.9908 204.171 11.1886C204.099 10.9356 203.966 10.7039 203.785 10.5132C203.604 10.3224 203.379 10.1784 203.13 10.0934C202.387 9.87657 201.618 9.75693 200.844 9.73751V8.82031C201.57 8.82031 202.501 8.91614 203.582 8.91614C204.664 8.91614 205.814 8.91614 206.963 8.91614C208.113 8.91614 209.441 8.91614 210.564 8.91614C211.686 8.91614 212.563 8.91614 213.302 8.82031V9.73751C212.514 9.75523 211.732 9.87487 210.975 10.0934C210.728 10.1755 210.507 10.3192 210.332 10.5109C210.157 10.7026 210.034 10.9359 209.975 11.1886C209.757 11.9908 209.664 12.8221 209.701 13.6527V36.2954C209.684 36.9604 209.734 37.6256 209.852 38.2804C211.851 41.2373 216.505 37.0209 216.505 37.0209C216.505 40.0463 214.287 40.9088 212.316 41.1278C211.54 41.1932 210.76 41.1702 209.989 41.0594H207.087C205.937 41.0594 204.801 41.0594 203.705 41.0594L200.967 41.1552V40.238C201.744 40.246 202.516 40.1258 203.254 39.8821C203.503 39.7971 203.727 39.6531 203.908 39.4623C204.09 39.2716 204.222 39.0399 204.294 38.7869C204.516 37.9854 204.609 37.1535 204.568 36.3227V25.549L206.498 25.5216Z" fill="#FEFBE8"/>
</svg>
